<?xml version="1.0" standalone="no"?>
<!DOCTYPE svg PUBLIC "-//W3C//DTD SVG 20010904//EN"
 "http://www.w3.org/TR/2001/REC-SVG-20010904/DTD/svg10.dtd">
<svg version="1.0" xmlns="http://www.w3.org/2000/svg"
 width="1312.000000pt" height="1312.000000pt" viewBox="0 0 1312.000000 1312.000000"
 preserveAspectRatio="xMidYMid meet">
<metadata>
Created by potrace 1.14, written by Peter Selinger 2001-2017
</metadata>
<g transform="translate(0.000000,1312.000000) scale(0.100000,-0.100000)"
fill="#000000" stroke="none">
<path d="M0 7360 l0 -2400 470 0 470 0 0 2400 0 2400 -470 0 -470 0 0 -2400z"/>
<path d="M12626 9110 c-63 -16 -153 -70 -197 -117 -22 -24 -55 -74 -72 -111
-29 -61 -32 -76 -32 -163 0 -90 2 -99 37 -171 45 -91 103 -147 196 -191 61
-29 76 -32 162 -32 86 0 101 3 162 32 93 44 151 100 196 191 35 72 37 81 37
172 0 91 -2 100 -37 172 -68 136 -188 217 -336 224 -42 2 -94 -1 -116 -6z"/>
<path d="M3058 8339 c-679 -52 -1271 -490 -1514 -1119 -114 -296 -140 -634
-75 -957 91 -446 351 -830 736 -1088 651 -436 1551 -392 2160 105 431 352 673
918 626 1461 -38 445 -215 812 -540 1121 -293 279 -672 442 -1106 478 -139 11
-132 11 -287 -1z m333 -903 c147 -32 283 -102 391 -204 116 -110 181 -214 234
-372 26 -79 28 -97 28 -245 1 -139 -2 -171 -23 -242 -91 -321 -345 -548 -675
-604 -95 -16 -272 -6 -366 21 -242 69 -450 259 -540 491 -42 110 -60 209 -60
332 1 391 257 726 625 816 98 24 289 27 386 7z"/>
<path d="M10750 8340 c-233 -18 -456 -81 -675 -190 -183 -91 -303 -178 -450
-325 -147 -147 -234 -267 -325 -450 -76 -152 -118 -270 -152 -428 -19 -88 -22
-133 -23 -327 0 -196 3 -240 23 -338 57 -280 181 -545 358 -763 460 -565 1259
-788 1974 -550 495 165 881 523 1071 991 411 1016 -198 2127 -1286 2349 -91
19 -335 43 -395 40 -14 -1 -68 -5 -120 -9z m350 -911 c172 -39 353 -155 459
-295 120 -159 175 -328 174 -534 -1 -155 -22 -243 -94 -390 -47 -94 -63 -116
-153 -206 -83 -82 -117 -108 -191 -146 -127 -65 -215 -89 -361 -95 -91 -4
-141 -1 -205 12 -451 91 -736 520 -654 989 30 169 100 308 218 432 209 221
496 304 807 233z"/>
<path d="M6771 8329 c-756 -80 -1375 -619 -1535 -1339 -86 -388 -37 -806 134
-1156 185 -377 503 -664 895 -809 206 -77 436 -112 660 -101 349 16 617 120
819 318 39 37 71 66 73 64 11 -11 -20 -296 -41 -378 -94 -369 -335 -612 -677
-682 -288 -58 -579 -4 -794 149 -83 59 -195 179 -245 264 -23 39 -44 71 -47
71 -4 0 -764 -410 -773 -417 -11 -10 88 -179 160 -275 266 -354 659 -579 1140
-653 58 -8 177 -18 265 -22 933 -35 1665 495 1886 1363 61 243 62 256 66 1124
5 830 0 960 -37 1138 -44 211 -139 434 -261 614 -91 134 -294 334 -432 426
-359 239 -810 347 -1256 301z"/>
</g>
</svg>
